<svg xmlns="http://www.w3.org/2000/svg">
 <symbol viewBox="0 0 36 36" id="notification">
<path class="clr-i-outline clr-i-outline-path-1" d="M32.51,27.83A14.4,14.4,0,0,1,30,24.9a12.63,12.63,0,0,1-1.35-4.81V15.15A10.81,10.81,0,0,0,19.21,4.4V3.11a1.33,1.33,0,1,0-2.67,0V4.42A10.81,10.81,0,0,0,7.21,15.15v4.94A12.63,12.63,0,0,1,5.86,24.9a14.4,14.4,0,0,1-2.47,2.93,1,1,0,0,0-.34.75v1.36a1,1,0,0,0,1,1h27.8a1,1,0,0,0,1-1V28.58A1,1,0,0,0,32.51,27.83ZM5.13,28.94a16.17,16.17,0,0,0,2.44-3,14.24,14.24,0,0,0,1.65-5.85V15.15a8.74,8.74,0,1,1,17.47,0v4.94a14.24,14.24,0,0,0,1.65,5.85,16.17,16.17,0,0,0,2.44,3Z"></path>
<path class="clr-i-outline clr-i-outline-path-2" d="M18,34.28A2.67,2.67,0,0,0,20.58,32H15.32A2.67,2.67,0,0,0,18,34.28Z"></path>
</symbol>
 <symbol viewBox="0 0 455.861 455.861" id="mail">
	<g>
			<path d="M52.616,139.032l102.427,88.898L52.616,316.828c-6.162,5.349-6.823,14.68-1.474,20.843
				c5.349,6.162,14.68,6.821,20.842,1.474l105.6-91.651l40.663,35.292c2.778,2.411,6.231,3.616,9.684,3.616s6.906-1.205,9.684-3.616
				l40.663-35.292l105.6,91.651c6.162,5.348,15.493,4.688,20.842-1.474c5.349-6.163,4.688-15.494-1.474-20.843L300.819,227.93
				l102.427-88.898c6.163-5.349,6.823-14.68,1.474-20.843c-5.349-6.163-14.682-6.822-20.842-1.474
				c-8.592,7.457-146.799,127.408-155.947,135.348c-9.151-7.942-147.358-127.893-155.947-135.348
				c-6.162-5.348-15.494-4.687-20.842,1.474C45.793,124.352,46.454,133.683,52.616,139.032z"/>
			<path d="M441.088,63.154H14.774C6.615,63.154,0,69.77,0,77.929v300.003c0,8.16,6.615,14.774,14.774,14.774h426.313
				c8.16,0,14.774-6.614,14.774-14.774V77.929C455.862,69.77,449.248,63.154,441.088,63.154z M426.314,363.157h-0.001H29.549V92.703
				h396.765V363.157z"/>
		</g>
</symbol>
<symbol viewBox="0 0 30 30" id="search">
<path d="M 13 3 C 7.4889971 3 3 7.4889971 3 13 C 3 18.511003 7.4889971 23 13 23 C 15.396508 23 17.597385 22.148986 19.322266 20.736328 L 25.292969 26.707031 A 1.0001 1.0001 0 1 0 26.707031 25.292969 L 20.736328 19.322266 C 22.148986 17.597385 23 15.396508 23 13 C 23 7.4889971 18.511003 3 13 3 z M 13 5 C 17.430123 5 21 8.5698774 21 13 C 21 17.430123 17.430123 21 13 21 C 8.5698774 21 5 17.430123 5 13 C 5 8.5698774 8.5698774 5 13 5 z"></path>
</symbol>
<symbol viewBox="0 0 489.6 489.6" id="glasses">
<path d="M353.7,85.738c6.5-2,13.5-1.3,19.5,1.9c6,3.2,10.4,8.6,12.4,15.1v0.1c0,0,0,0,0,0.1l43,136.4c-13-5.9-27.5-9.2-42.7-9.2
				c-52,0-95.1,38.4-102.5,88.4H206c-8.2-49-50.9-86.5-102.3-86.5c-15.3,0-29.8,3.3-42.8,9.3l43.5-138.3c0,0,0,0,0-0.1v-0.1
				c4.1-13.5,18.4-21.1,31.9-17c9.1,2.7,18.6-2.4,21.4-11.4c2.8-9.1-2.4-18.6-11.4-21.4c-31.5-9.6-64.9,8.2-74.6,39.6c0,0,0,0,0,0.1
				v0.1l0,0l0,0l-63.8,202.6c-0.2,0.6-0.3,1.2-0.5,1.8c-4.8,11.9-7.4,24.9-7.4,38.4c0,57.2,46.5,103.7,103.7,103.7
				c51.3,0,94.1-37.5,102.3-86.5h78c8.9,48.1,51.2,84.7,101.9,84.7c57.2,0,103.7-46.5,103.7-103.7c0-13.7-2.7-26.7-7.5-38.7
				l-63.8-202.5v-0.1c-4.7-15.2-15-27.7-29-35.2c-14.1-7.5-30.3-9.1-45.6-4.5c-9.1,2.8-14.2,12.3-11.4,21.4
				C335,83.438,344.6,88.538,353.7,85.738z M103.7,405.038c-38.3,0-69.4-31.1-69.4-69.4s31.1-69.4,69.4-69.4s69.4,31.1,69.4,69.4
				S142,405.038,103.7,405.038z M385.9,403.238c-38.3,0-69.4-31.1-69.4-69.4s31.1-69.4,69.4-69.4s69.4,31.1,69.4,69.4
				S424.1,403.238,385.9,403.238z"/>
<symbol/>
<symbol viewBox="0 0 502.643 502.643" id="wizard">
    <path d="M261.73,151.48l52.374-0.69c6.881-0.086,15.876,4.487,19.888,10.16l30.221,42.753
		c4.034,5.63,8.952,4.875,11.023-1.79l15.596-49.979c2.006-6.665,9.103-13.741,15.725-15.79l49.979-15.531
		c6.665-2.028,7.442-6.989,1.79-11.001l-42.775-30.264c-5.673-4.012-10.246-12.921-10.095-19.845l0.626-52.374
		c0.086-6.881-4.357-9.232-9.944-5.048l-41.955,31.321c-5.522,4.142-15.423,5.695-22.024,3.516l-49.57-16.868
		c-6.579-2.2-10.16,1.337-7.96,7.873l16.89,49.591c2.157,6.514,0.626,16.459-3.451,22.045l-31.385,41.934
		C252.498,147.08,254.827,151.523,261.73,151.48z"/>
	<path d="M498.793,432.202l0.863-0.884L75.811,7.56l-0.475,0.453c-0.065-0.022-0.065-0.086-0.129-0.108
		c-7.011-7.097-28.517,2.89-47.887,22.239C7.993,49.536-1.994,70.956,5.059,78.053c0.043,0.065,0.129,0.065,0.151,0.086
		l-0.496,0.518L428.515,502.48l0.841-0.906c8.413,4.444,28.107-5.285,46.075-23.296
		C493.508,460.244,503.193,440.572,498.793,432.202z M125.467,128.335c-10.246,10.246-21.053,17.753-30.027,21.635L32.756,86.919
		c8.93-3.904,19.608-11.389,29.789-21.528c10.117-10.16,17.515-20.73,21.463-29.617l62.836,63.202
		C142.918,107.842,135.476,118.304,125.467,128.335z"/>
<symbol/>
<symbol viewBox="0 0 441.18 441.181" id="rose">
<path d="M190.953,30.583l4.453-3.658c4.354-3.58,9.005-6.881,13.823-9.904C189.333,1.534,164.085,1.896,164.085,1.896
			s5.414,9.207,8.332,21.9C178.438,25.7,184.655,27.95,190.953,30.583z"/>
		<path d="M214.536,39.402l7.775,4.347c16.17-9.972,33.305-17.289,49.041-22.176c0.897-6.905,3.306-14.022,8.063-21.573
			c-18.632,0-54.191,10.395-80.091,31.69C204.399,34.014,209.492,36.582,214.536,39.402z"/>
		<path d="M260.813,327.047c-5.543,2.021-10.707,5.191-15.338,8.82c-6.14,4.816-11.361,10.744-15.395,17.404V227.117
			c17.701,14.266,64.763,9.882,64.763,9.882c-7.673-7.987-16.272-13.791-24.356-17.999c26.572-12.807,45.104-41.664,45.104-75.216
			c0-45.438-31.043-78.191-3.616-121.714c-41.932,0-148.225,39.44-148.225,121.714c0,27.119,12.106,51.17,30.778,66.159
			c-3.375,0.842-7.794,2.143-12.787,4.069c-18.637-16.845-30.501-42.074-30.501-70.229c0-47.26,31.052-78.564,58.778-97.1
			c-29.565-16.528-61.802-24.635-80.811-24.635c27.427,43.523-3.616,76.278-3.616,121.717c0,33.564,18.55,62.418,45.14,75.217
			c-8.094,4.209-16.708,10.02-24.393,18.018c0,0,47.062,4.384,64.763-9.881v140.129c-4.041-6.852-9.349-12.939-15.62-17.859
			c-4.582-3.593-9.692-6.729-15.177-8.729c-4.634-1.688-9.538-2.498-14.464-2.476c-11.488,0.054-22.66,4.173-33.087,8.632
			c4.795,5.657,9.31,11.569,14.354,17.013c8.38,9.046,18.761,16.157,30.572,19.897c10.788,3.412,22.399,3.876,33.421,1.388v56.066
			h18.98v-69.123c11.022,2.415,22.61,1.925,33.385-1.483c11.938-3.781,22.428-10.969,30.898-20.11
			c5.098-5.503,9.661-11.478,14.507-17.196c-10.539-4.505-21.83-8.666-33.438-8.721
			C270.452,324.521,265.497,325.341,260.813,327.047z M203.203,376.646c-2.878-2.023-5.915-3.823-8.937-5.624
			c-3.109-1.849-6.354-3.545-9.627-5.087c-5.445-2.567-11.02-5.043-16.818-6.712c2.528,0.26,5.035,0.733,7.531,1.204
			c10.559,1.99,28.176,9.203,35.748,12.426v9.646C208.537,380.454,205.887,378.536,203.203,376.646z M256.43,352.589
			c-3.309,1.56-6.587,3.274-9.729,5.146c-3.055,1.819-6.123,3.64-9.032,5.682c-2.576,1.814-5.12,3.659-7.588,5.606v-9.608
			c7.854-3.332,25.245-10.413,35.735-12.389c2.521-0.478,5.055-0.955,7.612-1.219C267.567,347.494,261.933,349.998,256.43,352.589z"
			/>
<symbol/>
<symbol viewBox="0 0 20 20" id="exit">
<path d="M16 18h-4a2 2 0 01-2-2v-2h2v2h4V4h-4v2h-2V4a2 2 0 012-2h4a2 2 0 012 2v12a2 2 0 01-2 2z"></path>
<path d="M7 5l1.5 1.5L6 9h8v2H6l2.5 2.5L7 15l-5-5 5-5z"></path>
<symbol/>
<symbol viewBox="0 0 20 20" id="dark">
<path fill-rule="evenodd" d="M8.614 2.134a8.001 8.001 0 001.388 15.879 8.003 8.003 0 007.884-6.635 6.947 6.947 0 01-2.884.62 7.004 7.004 0 01-6.388-9.864zM6.017 5.529a5.989 5.989 0 00-2.015 4.484c0 3.311 2.69 6 6 6a5.99 5.99 0 004.495-2.028 9.006 9.006 0 01-8.48-8.456z"></path>
<symbol/>
<symbol viewBox="0 0 20 20" id="language">
<path fill-rule="evenodd" d="M10 2c4.415 0 8 3.585 8 8s-3.585 8-8 8-8-3.585-8-8 3.585-8 8-8zm5.917 9a6.015 6.015 0 01-3.584 4.529A10 10 0 0013.95 11h1.967zm0-2a6.015 6.015 0 00-3.584-4.529A10 10 0 0113.95 9h1.967zm-3.98 0A8.002 8.002 0 0010 4.708 8.002 8.002 0 008.063 9h3.874zm-3.874 2A8.002 8.002 0 0010 15.292 8.002 8.002 0 0011.937 11H8.063zM6.05 11a10 10 0 001.617 4.529A6.014 6.014 0 014.083 11H6.05zm0-2a10 10 0 011.617-4.529A6.014 6.014 0 004.083 9H6.05z"></path>
<symbol/>
<symbol viewBox="0 0 48 48" id="left">
<path d="M31 36L19 24L31 12"/>
<symbol/>
</svg>

