<?xml version="1.0" encoding="iso-8859-1"?><!DOCTYPE svg PUBLIC "-//W3C//DTD SVG 1.1//EN" "http://www.w3.org/Graphics/SVG/1.1/DTD/svg11.dtd"><svg viewBox="0 0 502.64 502.64" xmlns="http://www.w3.org/2000/svg" xmlns:xlink="http://www.w3.org/1999/xlink"><style>:root>svg{display:none}:root>svg:target{display:block}</style><svg viewBox="0 0 49.739 49.739" id="dark" fill="#fff" xmlns="http://www.w3.org/2000/svg"><path d="M25.068 48.889c-9.173 0-18.017-5.06-22.396-13.804A24.91 24.91 0 0113.003 1.979L15.064.85l-.615 2.268a22.962 22.962 0 001.633 16.306A22.848 22.848 0 0029.387 30.95a22.855 22.855 0 0017.559-1.258c.25-.125.492-.258.734-.391l2.061-1.13-.585 2.252a25.032 25.032 0 01-12.933 15.822 24.877 24.877 0 01-11.155 2.644zM12.002 4.936a22.906 22.906 0 00-7.54 29.253c5.678 11.34 19.522 15.945 30.864 10.268A23.037 23.037 0 0046.507 32.1c-5.632 2.427-11.882 2.702-17.752.748-6.337-2.108-11.473-6.557-14.463-12.528a24.948 24.948 0 01-2.29-15.384z"/></svg><svg viewBox="0 0 24 24" id="exit" xmlns="http://www.w3.org/2000/svg" fill="#fff"><path d="M9 2a1 1 0 00-1 1v5a1 1 0 001 1 1 1 0 001-1V4h8v16h-8v-4a1 1 0 00-1-1 1 1 0 00-1 1v5a1 1 0 001 1h10a1 1 0 001-1V3a1 1 0 00-1-1H9zM7.03 9a1 1 0 00-.737.293l-1.98 1.98-.02.02a1 1 0 00-.01.01 1 1 0 00-.047.052 1 1 0 00-.05.067 1 1 0 00-.04.06 1 1 0 00-.017.028 1 1 0 00-.03.056 1 1 0 00-.03.073 1 1 0 00-.005.011 1 1 0 00-.023.065 1 1 0 00-.008.035 1 1 0 00-.01.041 1 1 0 00-.007.037 1 1 0 00-.008.043 1 1 0 00-.006.072 1 1 0 00-.002.045A1 1 0 004 12a1 1 0 00.002.03 1 1 0 00.002.036 1 1 0 00.004.051 1 1 0 00.004.03 1 1 0 00.013.076 1 1 0 00.016.058 1 1 0 00.014.043 1 1 0 00.004.014 1 1 0 00.029.07 1 1 0 00.033.067 1 1 0 00.014.027 1 1 0 00.03.045 1 1 0 00.013.021 1 1 0 00.023.034 1 1 0 00.018.021 1 1 0 00.047.055 1 1 0 00.02.021 1 1 0 00.007.008 1 1 0 00.041.04l1.959 1.96a1 1 0 001.414 0 1 1 0 000-1.414L7.414 13H14a1 1 0 001-1 1 1 0 00-1-1H7.414l.293-.293a1 1 0 000-1.414A1 1 0 007.029 9z" style="line-height:normal;font-variant-ligatures:normal;font-variant-position:normal;font-variant-caps:normal;font-variant-numeric:normal;font-variant-alternates:normal;font-variant-east-asian:normal;font-feature-settings:normal;font-variation-settings:normal;text-indent:0;text-align:start;text-decoration-line:none;text-decoration-style:solid;text-decoration-color:#000;text-transform:none;text-orientation:mixed;white-space:normal;shape-padding:0;shape-margin:0;inline-size:0;isolation:auto;mix-blend-mode:normal;solid-color:#000;solid-opacity:1" color="#000" font-weight="400" font-family="sans-serif" overflow="visible"/></svg><svg viewBox="0 0 489.6 489.6" id="glasses" xmlns="http://www.w3.org/2000/svg" fill="#fff"><path d="M353.7 85.738c6.5-2 13.5-1.3 19.5 1.9s10.4 8.6 12.4 15.1v.2l43 136.4c-13-5.9-27.5-9.2-42.7-9.2-52 0-95.1 38.4-102.5 88.4H206c-8.2-49-50.9-86.5-102.3-86.5-15.3 0-29.8 3.3-42.8 9.3l43.5-138.3v-.2c4.1-13.5 18.4-21.1 31.9-17 9.1 2.7 18.6-2.4 21.4-11.4 2.8-9.1-2.4-18.6-11.4-21.4-31.5-9.6-64.9 8.2-74.6 39.6v.2l-63.8 202.6c-.2.6-.3 1.2-.5 1.8-4.8 11.9-7.4 24.9-7.4 38.4 0 57.2 46.5 103.7 103.7 103.7 51.3 0 94.1-37.5 102.3-86.5h78c8.9 48.1 51.2 84.7 101.9 84.7 57.2 0 103.7-46.5 103.7-103.7 0-13.7-2.7-26.7-7.5-38.7l-63.8-202.5v-.1c-4.7-15.2-15-27.7-29-35.2-14.1-7.5-30.3-9.1-45.6-4.5-9.1 2.8-14.2 12.3-11.4 21.4 2.7 9.2 12.3 14.3 21.4 11.5zm-250 319.3c-38.3 0-69.4-31.1-69.4-69.4s31.1-69.4 69.4-69.4 69.4 31.1 69.4 69.4-31.1 69.4-69.4 69.4zm282.2-1.8c-38.3 0-69.4-31.1-69.4-69.4s31.1-69.4 69.4-69.4 69.4 31.1 69.4 69.4-31.2 69.4-69.4 69.4z"/></svg><svg viewBox="0 0 24 24" id="language" xmlns="http://www.w3.org/2000/svg" fill="#fff"><path d="M2 12c0 5.523 4.477 10 10 10s10-4.477 10-10S17.523 2 12 2 2 6.477 2 12z" fill="#fff" stroke="currentColor" stroke-width="1.5" stroke-linecap="round" stroke-linejoin="round"/><path d="M13 2.05S16 6 16 12c0 6-3 9.95-3 9.95M11 21.95S8 18 8 12c0-6 3-9.95 3-9.95M2.63 15.5h18.74M2.63 8.5h18.74" fill="#fff" stroke="currentColor" stroke-width="1.5" stroke-linecap="round" stroke-linejoin="round"/></svg><svg viewBox="0 0 48 48" id="left_arrow" xmlns="http://www.w3.org/2000/svg" fill="none"><path d="M0 0h48v48H0z" fill="none"/><path d="M31 36L19 24l12-12" stroke="#000" stroke-width="4" stroke-linecap="round" stroke-linejoin="round" fill="white"/></svg><svg viewBox="0 0 441.18 441.181" id="rose" xmlns="http://www.w3.org/2000/svg" fill="white"><path d="M190.953 30.583l4.453-3.658c4.354-3.58 9.005-6.881 13.823-9.904-19.896-15.487-45.144-15.125-45.144-15.125s5.414 9.207 8.332 21.9a220.423 220.423 0 0118.536 6.787zM214.536 39.402l7.775 4.347c16.17-9.972 33.305-17.289 49.041-22.176.897-6.905 3.306-14.022 8.063-21.573-18.632 0-54.191 10.395-80.091 31.69a212.509 212.509 0 0115.212 7.712z"/><path d="M260.813 327.047c-5.543 2.021-10.707 5.191-15.338 8.82a64.818 64.818 0 00-15.395 17.404V227.117c17.701 14.266 64.763 9.882 64.763 9.882-7.673-7.987-16.272-13.791-24.356-17.999 26.572-12.807 45.104-41.664 45.104-75.216 0-45.438-31.043-78.191-3.616-121.714-41.932 0-148.225 39.44-148.225 121.714 0 27.119 12.106 51.17 30.778 66.159a109.567 109.567 0 00-12.787 4.069c-18.637-16.845-30.501-42.074-30.501-70.229 0-47.26 31.052-78.564 58.778-97.1-29.565-16.528-61.802-24.635-80.811-24.635 27.427 43.523-3.616 76.278-3.616 121.717 0 33.564 18.55 62.418 45.14 75.217-8.094 4.209-16.708 10.02-24.393 18.018 0 0 47.062 4.384 64.763-9.881v140.129a64.15 64.15 0 00-15.62-17.859c-4.582-3.593-9.692-6.729-15.177-8.729-4.634-1.688-9.538-2.498-14.464-2.476-11.488.054-22.66 4.173-33.087 8.632 4.795 5.657 9.31 11.569 14.354 17.013 8.38 9.046 18.761 16.157 30.572 19.897 10.788 3.412 22.399 3.876 33.421 1.388v56.066h18.98v-69.123c11.022 2.415 22.61 1.925 33.385-1.483 11.938-3.781 22.428-10.969 30.898-20.11 5.098-5.503 9.661-11.478 14.507-17.196-10.539-4.505-21.83-8.666-33.438-8.721-4.98-.026-9.935.794-14.619 2.5zm-57.61 49.599c-2.878-2.023-5.915-3.823-8.937-5.624a113.607 113.607 0 00-9.627-5.087c-5.445-2.567-11.02-5.043-16.818-6.712 2.528.26 5.035.733 7.531 1.204 10.559 1.99 28.176 9.203 35.748 12.426v9.646c-2.563-2.045-5.213-3.963-7.897-5.853zm53.227-24.057c-3.309 1.56-6.587 3.274-9.729 5.146-3.055 1.819-6.123 3.64-9.032 5.682-2.576 1.814-5.12 3.659-7.588 5.606v-9.608c7.854-3.332 25.245-10.413 35.735-12.389 2.521-.478 5.055-.955 7.612-1.219-5.861 1.687-11.495 4.191-16.998 6.782z"/></svg><svg viewBox="0 0 487.95 487.95" id="search" fill="#fff" xmlns="http://www.w3.org/2000/svg"><path d="M481.8 453l-140-140.1c27.6-33.1 44.2-75.4 44.2-121.6C386 85.9 299.5.2 193.1.2S0 86 0 191.4s86.5 191.1 192.9 191.1c45.2 0 86.8-15.5 119.8-41.4l140.5 140.5c8.2 8.2 20.4 8.2 28.6 0 8.2-8.2 8.2-20.4 0-28.6zM41 191.4c0-82.8 68.2-150.1 151.9-150.1s151.9 67.3 151.9 150.1-68.2 150.1-151.9 150.1S41 274.1 41 191.4z"/></svg><svg viewBox="0 0 502.643 502.643" id="wizard" fill="#fff" xmlns="http://www.w3.org/2000/svg"><g><path d="M261.73 151.48l52.374-.69c6.881-.086 15.876 4.487 19.888 10.16l30.221 42.753c4.034 5.63 8.952 4.875 11.023-1.79l15.596-49.979c2.006-6.665 9.103-13.741 15.725-15.79l49.979-15.531c6.665-2.028 7.442-6.989 1.79-11.001l-42.775-30.264c-5.673-4.012-10.246-12.921-10.095-19.845l.626-52.374c.086-6.881-4.357-9.232-9.944-5.048l-41.955 31.321c-5.522 4.142-15.423 5.695-22.024 3.516l-49.57-16.868c-6.579-2.2-10.16 1.337-7.96 7.873l16.89 49.591c2.157 6.514.626 16.459-3.451 22.045l-31.385 41.934c-4.185 5.587-1.856 10.03 5.047 9.987zM498.793 432.202l.863-.884L75.811 7.56l-.475.453c-.065-.022-.065-.086-.129-.108C68.196.808 46.69 10.795 27.32 30.144 7.993 49.536-1.994 70.956 5.059 78.053c.043.065.129.065.151.086l-.496.518L428.515 502.48l.841-.906c8.413 4.444 28.107-5.285 46.075-23.296 18.077-18.034 27.762-37.706 23.362-46.076zM125.467 128.335c-10.246 10.246-21.053 17.753-30.027 21.635L32.756 86.919c8.93-3.904 19.608-11.389 29.789-21.528 10.117-10.16 17.515-20.73 21.463-29.617l62.836 63.202c-3.926 8.866-11.368 19.328-21.377 29.359z"/></g></svg></svg>